<svg width="1300" height="520" viewBox="0 0 1300 520" fill="none" xmlns="http://www.w3.org/2000/svg">
<path stroke="white" stroke-width="1px" shape-rendering="optimizeQuality" d="M6.04853 519.4V505.506C6.04853 505.506 47.7379 509.849 25.158 441.23L6.04853 387.379C6.04853 387.379 -27.8275 282.28 85.0907 221.481L25.158 150.259C25.158 150.259 -34.7747 72.0888 30.3668 0H42.5413C42.5413 0 36.4479 33.8761 70.3179 74.6993C104.188 115.523 225.791 259.7 225.791 259.7C225.791 259.7 227.53 200.64 270.085 139.841C270.085 139.841 158.039 128.551 220.576 0H233.605C233.605 0 232.739 39.951 302.223 47.7705C371.707 55.5899 346.517 140.707 346.517 140.707L298.746 142.445C298.746 142.445 221.443 254.491 275.294 322.237C329.146 389.983 332.616 396.937 332.616 396.937C332.616 396.937 370.835 462.078 328.274 519.406H307.438C307.438 519.406 307.438 497.06 273.562 453.945C239.686 410.831 100.717 242.335 100.717 242.335C100.717 242.335 24.2857 278.816 68.5795 356.986C112.873 435.155 147.622 484.664 98.1128 519.406H6.04853V519.4Z" fill="white"/>
<path stroke="white" stroke-width="1px" shape-rendering="optimizeQuality" d="M495.177 0H478.34C478.34 0 409.232 129.85 504.037 130.719C598.842 131.589 659.1 130.504 676.81 130.719C694.52 130.935 753.011 135.911 753.895 228.539C754.778 321.166 753.895 519.406 753.895 519.406H770.731C770.731 519.406 794.655 509.017 794.655 483.917C794.655 458.816 794.655 167.079 794.655 167.079C794.655 167.079 790.24 33.7318 668.84 33.7635C547.44 33.7952 543.522 33.7318 532.021 33.7318C520.519 33.7318 495.177 30.2983 495.177 0Z" fill="white"/>
<path stroke="white" stroke-width="1px" shape-rendering="optimizeQuality" d="M985.457 0H968.428C968.428 0 898.531 132.487 985.457 134.237C1072.38 135.987 1149.45 134.237 1149.45 134.237C1149.45 134.237 1187.09 133.362 1200.53 157.927C1213.97 182.492 1218.45 207.939 1219.35 237.772C1220.24 267.605 1219.35 325.509 1219.35 325.509C1219.35 325.509 1218.45 394.824 1207.7 424.651H946.918L928.995 519.406H1282.08L1300 424.651L1224.72 425.526C1224.72 425.526 1263.25 370.253 1262.36 292.164C1261.47 214.075 1261.79 146.547 1261.79 146.547C1261.79 146.547 1269.54 35.0887 1134.21 34.2139C998.893 33.339 1014.33 33.3904 1014.33 33.3904C1014.33 33.3904 986.501 34.1324 985.457 0Z" fill="white"/>
</svg>
